<mxfile host="app.diagrams.net" modified="2024-03-22T16:36:16.297Z" agent="Mozilla/5.0 (Windows NT 10.0; Win64; x64) AppleWebKit/537.36 (KHTML, like Gecko) Chrome/122.0.0.0 Safari/537.36" etag="hMd34aABpMRhPCZLjIAB" version="24.0.7" type="github" pages="3">
  <diagram name="Page-1" id="JJwD-la2Kz4rcNzDOmXE">
    <mxGraphModel dx="1434" dy="746" grid="1" gridSize="10" guides="1" tooltips="1" connect="1" arrows="1" fold="1" page="1" pageScale="1" pageWidth="827" pageHeight="1169" math="0" shadow="0">
      <root>
        <mxCell id="0" />
        <mxCell id="1" parent="0" />
        <mxCell id="bjYdS-ex-IDbYad80Igs-5" value="" style="edgeStyle=orthogonalEdgeStyle;rounded=0;orthogonalLoop=1;jettySize=auto;html=1;" parent="1" source="bjYdS-ex-IDbYad80Igs-1" target="bjYdS-ex-IDbYad80Igs-2" edge="1">
          <mxGeometry relative="1" as="geometry" />
        </mxCell>
        <mxCell id="bjYdS-ex-IDbYad80Igs-1" value="Actor" style="shape=umlActor;verticalLabelPosition=bottom;verticalAlign=top;html=1;outlineConnect=0;" parent="1" vertex="1">
          <mxGeometry x="399" y="30" width="30" height="60" as="geometry" />
        </mxCell>
        <mxCell id="bjYdS-ex-IDbYad80Igs-9" value="" style="edgeStyle=orthogonalEdgeStyle;rounded=0;orthogonalLoop=1;jettySize=auto;html=1;" parent="1" source="bjYdS-ex-IDbYad80Igs-2" target="bjYdS-ex-IDbYad80Igs-7" edge="1">
          <mxGeometry relative="1" as="geometry" />
        </mxCell>
        <mxCell id="bjYdS-ex-IDbYad80Igs-2" value="Web App&lt;br&gt;" style="rounded=0;whiteSpace=wrap;html=1;" parent="1" vertex="1">
          <mxGeometry x="354" y="150" width="120" height="60" as="geometry" />
        </mxCell>
        <mxCell id="bjYdS-ex-IDbYad80Igs-13" value="" style="edgeStyle=orthogonalEdgeStyle;rounded=0;orthogonalLoop=1;jettySize=auto;html=1;" parent="1" source="bjYdS-ex-IDbYad80Igs-6" target="bjYdS-ex-IDbYad80Igs-12" edge="1">
          <mxGeometry relative="1" as="geometry" />
        </mxCell>
        <mxCell id="bjYdS-ex-IDbYad80Igs-15" value="" style="edgeStyle=orthogonalEdgeStyle;rounded=0;orthogonalLoop=1;jettySize=auto;html=1;" parent="1" source="bjYdS-ex-IDbYad80Igs-6" edge="1">
          <mxGeometry relative="1" as="geometry">
            <mxPoint x="414" y="510" as="targetPoint" />
          </mxGeometry>
        </mxCell>
        <mxCell id="bjYdS-ex-IDbYad80Igs-6" value="Payment Service" style="rounded=0;whiteSpace=wrap;html=1;" parent="1" vertex="1">
          <mxGeometry x="354" y="390" width="120" height="60" as="geometry" />
        </mxCell>
        <mxCell id="bjYdS-ex-IDbYad80Igs-10" value="" style="edgeStyle=orthogonalEdgeStyle;rounded=0;orthogonalLoop=1;jettySize=auto;html=1;" parent="1" source="bjYdS-ex-IDbYad80Igs-7" target="bjYdS-ex-IDbYad80Igs-6" edge="1">
          <mxGeometry relative="1" as="geometry" />
        </mxCell>
        <mxCell id="bjYdS-ex-IDbYad80Igs-7" value="Load balancer" style="rounded=0;whiteSpace=wrap;html=1;" parent="1" vertex="1">
          <mxGeometry x="354" y="270" width="120" height="60" as="geometry" />
        </mxCell>
        <mxCell id="bjYdS-ex-IDbYad80Igs-12" value="Currency exchange rates AP" style="rounded=0;whiteSpace=wrap;html=1;" parent="1" vertex="1">
          <mxGeometry x="670" y="390" width="120" height="60" as="geometry" />
        </mxCell>
        <mxCell id="bjYdS-ex-IDbYad80Igs-16" value="queue" style="shape=cylinder3;whiteSpace=wrap;html=1;boundedLbl=1;backgroundOutline=1;size=15;direction=south;" parent="1" vertex="1">
          <mxGeometry x="370" y="510" width="80" height="60" as="geometry" />
        </mxCell>
        <mxCell id="bjYdS-ex-IDbYad80Igs-38" style="edgeStyle=orthogonalEdgeStyle;rounded=0;orthogonalLoop=1;jettySize=auto;html=1;entryX=0.5;entryY=0;entryDx=0;entryDy=0;" parent="1" source="bjYdS-ex-IDbYad80Igs-34" target="bjYdS-ex-IDbYad80Igs-37" edge="1">
          <mxGeometry relative="1" as="geometry" />
        </mxCell>
        <mxCell id="bjYdS-ex-IDbYad80Igs-60" value="" style="edgeStyle=orthogonalEdgeStyle;rounded=0;orthogonalLoop=1;jettySize=auto;html=1;" parent="1" source="bjYdS-ex-IDbYad80Igs-34" target="bjYdS-ex-IDbYad80Igs-58" edge="1">
          <mxGeometry relative="1" as="geometry" />
        </mxCell>
        <mxCell id="bjYdS-ex-IDbYad80Igs-34" value="Payment Execution Service&lt;br&gt;" style="rounded=0;whiteSpace=wrap;html=1;" parent="1" vertex="1">
          <mxGeometry x="354" y="680" width="120" height="60" as="geometry" />
        </mxCell>
        <mxCell id="bjYdS-ex-IDbYad80Igs-36" style="edgeStyle=orthogonalEdgeStyle;rounded=0;orthogonalLoop=1;jettySize=auto;html=1;entryX=0.45;entryY=-0.067;entryDx=0;entryDy=0;entryPerimeter=0;" parent="1" source="bjYdS-ex-IDbYad80Igs-16" target="bjYdS-ex-IDbYad80Igs-34" edge="1">
          <mxGeometry relative="1" as="geometry" />
        </mxCell>
        <mxCell id="bjYdS-ex-IDbYad80Igs-37" value="Currency execution API" style="rounded=0;whiteSpace=wrap;html=1;" parent="1" vertex="1">
          <mxGeometry x="354" y="820" width="120" height="60" as="geometry" />
        </mxCell>
        <mxCell id="bjYdS-ex-IDbYad80Igs-39" value="database" style="shape=cylinder3;whiteSpace=wrap;html=1;boundedLbl=1;backgroundOutline=1;size=15;" parent="1" vertex="1">
          <mxGeometry x="670" y="670" width="60" height="80" as="geometry" />
        </mxCell>
        <mxCell id="bjYdS-ex-IDbYad80Igs-49" value="" style="edgeStyle=orthogonalEdgeStyle;rounded=0;orthogonalLoop=1;jettySize=auto;html=1;" parent="1" source="bjYdS-ex-IDbYad80Igs-41" target="bjYdS-ex-IDbYad80Igs-47" edge="1">
          <mxGeometry relative="1" as="geometry" />
        </mxCell>
        <mxCell id="bjYdS-ex-IDbYad80Igs-77" style="edgeStyle=orthogonalEdgeStyle;rounded=0;orthogonalLoop=1;jettySize=auto;html=1;entryX=0.5;entryY=0;entryDx=0;entryDy=0;" parent="1" source="bjYdS-ex-IDbYad80Igs-41" target="bjYdS-ex-IDbYad80Igs-58" edge="1">
          <mxGeometry relative="1" as="geometry" />
        </mxCell>
        <mxCell id="bjYdS-ex-IDbYad80Igs-41" value="Payment Execution Notitication Service" style="rounded=0;whiteSpace=wrap;html=1;" parent="1" vertex="1">
          <mxGeometry x="170" y="680" width="120" height="60" as="geometry" />
        </mxCell>
        <mxCell id="bjYdS-ex-IDbYad80Igs-43" style="edgeStyle=orthogonalEdgeStyle;rounded=0;orthogonalLoop=1;jettySize=auto;html=1;entryX=0.417;entryY=1;entryDx=0;entryDy=0;entryPerimeter=0;" parent="1" source="bjYdS-ex-IDbYad80Igs-37" target="bjYdS-ex-IDbYad80Igs-41" edge="1">
          <mxGeometry relative="1" as="geometry" />
        </mxCell>
        <mxCell id="bjYdS-ex-IDbYad80Igs-45" value="Accepted or Declined Status" style="text;strokeColor=none;align=center;fillColor=none;html=1;verticalAlign=middle;whiteSpace=wrap;rounded=0;" parent="1" vertex="1">
          <mxGeometry x="150" y="790" width="60" height="30" as="geometry" />
        </mxCell>
        <mxCell id="bjYdS-ex-IDbYad80Igs-46" value="Customer Notification Service" style="rounded=0;whiteSpace=wrap;html=1;" parent="1" vertex="1">
          <mxGeometry x="160" y="400" width="120" height="60" as="geometry" />
        </mxCell>
        <mxCell id="bjYdS-ex-IDbYad80Igs-51" value="" style="edgeStyle=orthogonalEdgeStyle;rounded=0;orthogonalLoop=1;jettySize=auto;html=1;" parent="1" source="bjYdS-ex-IDbYad80Igs-47" target="bjYdS-ex-IDbYad80Igs-46" edge="1">
          <mxGeometry relative="1" as="geometry" />
        </mxCell>
        <mxCell id="bjYdS-ex-IDbYad80Igs-47" value="queue" style="shape=cylinder3;whiteSpace=wrap;html=1;boundedLbl=1;backgroundOutline=1;size=15;direction=south;" parent="1" vertex="1">
          <mxGeometry x="190" y="560" width="80" height="60" as="geometry" />
        </mxCell>
        <mxCell id="bjYdS-ex-IDbYad80Igs-52" style="edgeStyle=orthogonalEdgeStyle;rounded=0;orthogonalLoop=1;jettySize=auto;html=1;entryX=0;entryY=0.3333333333333333;entryDx=0;entryDy=0;entryPerimeter=0;" parent="1" source="bjYdS-ex-IDbYad80Igs-46" target="bjYdS-ex-IDbYad80Igs-1" edge="1">
          <mxGeometry relative="1" as="geometry" />
        </mxCell>
        <mxCell id="bjYdS-ex-IDbYad80Igs-54" value="Async&amp;nbsp;" style="text;strokeColor=none;align=center;fillColor=none;html=1;verticalAlign=middle;whiteSpace=wrap;rounded=0;" parent="1" vertex="1">
          <mxGeometry x="414" y="350" width="60" height="30" as="geometry" />
        </mxCell>
        <mxCell id="bjYdS-ex-IDbYad80Igs-56" value="caching" style="text;strokeColor=none;align=center;fillColor=none;html=1;verticalAlign=middle;whiteSpace=wrap;rounded=0;" parent="1" vertex="1">
          <mxGeometry x="610" y="390" width="60" height="30" as="geometry" />
        </mxCell>
        <mxCell id="bjYdS-ex-IDbYad80Igs-57" value="Webhook" style="text;strokeColor=none;align=center;fillColor=none;html=1;verticalAlign=middle;whiteSpace=wrap;rounded=0;" parent="1" vertex="1">
          <mxGeometry x="240" y="820" width="60" height="30" as="geometry" />
        </mxCell>
        <mxCell id="bjYdS-ex-IDbYad80Igs-61" value="" style="edgeStyle=orthogonalEdgeStyle;rounded=0;orthogonalLoop=1;jettySize=auto;html=1;" parent="1" source="bjYdS-ex-IDbYad80Igs-58" target="bjYdS-ex-IDbYad80Igs-39" edge="1">
          <mxGeometry relative="1" as="geometry" />
        </mxCell>
        <mxCell id="bjYdS-ex-IDbYad80Igs-58" value="Audit Service" style="rounded=0;whiteSpace=wrap;html=1;" parent="1" vertex="1">
          <mxGeometry x="530" y="680" width="120" height="60" as="geometry" />
        </mxCell>
        <mxCell id="bjYdS-ex-IDbYad80Igs-63" value="Payment" style="swimlane;fontStyle=0;childLayout=stackLayout;horizontal=1;startSize=30;horizontalStack=0;resizeParent=1;resizeParentMax=0;resizeLast=0;collapsible=1;marginBottom=0;whiteSpace=wrap;html=1;" parent="1" vertex="1">
          <mxGeometry x="570" y="760" width="140" height="90" as="geometry" />
        </mxCell>
        <mxCell id="bjYdS-ex-IDbYad80Igs-64" value="payment ID&amp;nbsp;" style="text;strokeColor=none;fillColor=none;align=left;verticalAlign=middle;spacingLeft=4;spacingRight=4;overflow=hidden;points=[[0,0.5],[1,0.5]];portConstraint=eastwest;rotatable=0;whiteSpace=wrap;html=1;" parent="bjYdS-ex-IDbYad80Igs-63" vertex="1">
          <mxGeometry y="30" width="140" height="30" as="geometry" />
        </mxCell>
        <mxCell id="bjYdS-ex-IDbYad80Igs-65" value="Customer ID" style="text;strokeColor=none;fillColor=none;align=left;verticalAlign=middle;spacingLeft=4;spacingRight=4;overflow=hidden;points=[[0,0.5],[1,0.5]];portConstraint=eastwest;rotatable=0;whiteSpace=wrap;html=1;" parent="bjYdS-ex-IDbYad80Igs-63" vertex="1">
          <mxGeometry y="60" width="140" height="30" as="geometry" />
        </mxCell>
        <mxCell id="bjYdS-ex-IDbYad80Igs-75" value="" style="edgeStyle=orthogonalEdgeStyle;rounded=0;orthogonalLoop=1;jettySize=auto;html=1;" parent="1" source="bjYdS-ex-IDbYad80Igs-68" target="bjYdS-ex-IDbYad80Igs-65" edge="1">
          <mxGeometry relative="1" as="geometry" />
        </mxCell>
        <mxCell id="bjYdS-ex-IDbYad80Igs-68" value="payment audit&lt;br&gt;" style="swimlane;whiteSpace=wrap;html=1;" parent="1" vertex="1">
          <mxGeometry x="560" y="920" width="200" height="200" as="geometry" />
        </mxCell>
        <mxCell id="bjYdS-ex-IDbYad80Igs-71" value="Status" style="text;html=1;align=center;verticalAlign=middle;resizable=0;points=[];autosize=1;strokeColor=none;fillColor=none;" parent="bjYdS-ex-IDbYad80Igs-68" vertex="1">
          <mxGeometry y="78" width="60" height="30" as="geometry" />
        </mxCell>
        <mxCell id="bjYdS-ex-IDbYad80Igs-69" value="payment ID" style="text;html=1;align=center;verticalAlign=middle;resizable=0;points=[];autosize=1;strokeColor=none;fillColor=none;" parent="1" vertex="1">
          <mxGeometry x="560" y="958" width="80" height="30" as="geometry" />
        </mxCell>
        <mxCell id="bjYdS-ex-IDbYad80Igs-72" value="Creation Date" style="text;html=1;align=center;verticalAlign=middle;resizable=0;points=[];autosize=1;strokeColor=none;fillColor=none;" parent="1" vertex="1">
          <mxGeometry x="540" y="1038" width="100" height="30" as="geometry" />
        </mxCell>
        <mxCell id="bjYdS-ex-IDbYad80Igs-73" value="" style="endArrow=classic;html=1;rounded=0;" parent="1" edge="1">
          <mxGeometry relative="1" as="geometry">
            <mxPoint x="370" y="740" as="sourcePoint" />
            <mxPoint x="470" y="740" as="targetPoint" />
          </mxGeometry>
        </mxCell>
        <mxCell id="bjYdS-ex-IDbYad80Igs-74" value="Label" style="edgeLabel;resizable=0;html=1;align=center;verticalAlign=middle;" parent="bjYdS-ex-IDbYad80Igs-73" connectable="0" vertex="1">
          <mxGeometry relative="1" as="geometry" />
        </mxCell>
      </root>
    </mxGraphModel>
  </diagram>
  <diagram id="ZBoCV9ZldW-aW__aYxX8" name="Page-2">
    <mxGraphModel dx="2261" dy="746" grid="1" gridSize="10" guides="1" tooltips="1" connect="1" arrows="1" fold="1" page="1" pageScale="1" pageWidth="827" pageHeight="1169" math="0" shadow="0">
      <root>
        <mxCell id="0" />
        <mxCell id="1" parent="0" />
        <mxCell id="VpKNRj3l13NfQC-vOljt-4" value="" style="edgeStyle=orthogonalEdgeStyle;rounded=0;orthogonalLoop=1;jettySize=auto;html=1;" edge="1" parent="1" source="wQz08NDPql334Otkg_Ah-1" target="VpKNRj3l13NfQC-vOljt-3">
          <mxGeometry relative="1" as="geometry" />
        </mxCell>
        <mxCell id="wQz08NDPql334Otkg_Ah-1" value="Actor" style="shape=umlActor;verticalLabelPosition=bottom;verticalAlign=top;html=1;outlineConnect=0;" vertex="1" parent="1">
          <mxGeometry x="40" y="240" width="30" height="60" as="geometry" />
        </mxCell>
        <mxCell id="VpKNRj3l13NfQC-vOljt-7" value="" style="edgeStyle=orthogonalEdgeStyle;rounded=0;orthogonalLoop=1;jettySize=auto;html=1;" edge="1" parent="1" source="VpKNRj3l13NfQC-vOljt-3" target="VpKNRj3l13NfQC-vOljt-5">
          <mxGeometry relative="1" as="geometry" />
        </mxCell>
        <mxCell id="VpKNRj3l13NfQC-vOljt-3" value="Web App" style="rounded=0;whiteSpace=wrap;html=1;" vertex="1" parent="1">
          <mxGeometry x="140" y="240" width="120" height="60" as="geometry" />
        </mxCell>
        <mxCell id="VpKNRj3l13NfQC-vOljt-11" value="" style="edgeStyle=orthogonalEdgeStyle;rounded=0;orthogonalLoop=1;jettySize=auto;html=1;" edge="1" parent="1" source="VpKNRj3l13NfQC-vOljt-5" target="VpKNRj3l13NfQC-vOljt-10">
          <mxGeometry relative="1" as="geometry" />
        </mxCell>
        <mxCell id="VpKNRj3l13NfQC-vOljt-5" value="Payment Service" style="rounded=0;whiteSpace=wrap;html=1;" vertex="1" parent="1">
          <mxGeometry x="320" y="240" width="120" height="60" as="geometry" />
        </mxCell>
        <mxCell id="VpKNRj3l13NfQC-vOljt-8" value="async" style="text;html=1;align=center;verticalAlign=middle;resizable=0;points=[];autosize=1;strokeColor=none;fillColor=none;" vertex="1" parent="1">
          <mxGeometry x="265" y="268" width="50" height="30" as="geometry" />
        </mxCell>
        <mxCell id="VpKNRj3l13NfQC-vOljt-14" value="" style="edgeStyle=orthogonalEdgeStyle;rounded=0;orthogonalLoop=1;jettySize=auto;html=1;" edge="1" parent="1" source="VpKNRj3l13NfQC-vOljt-10" target="VpKNRj3l13NfQC-vOljt-13">
          <mxGeometry relative="1" as="geometry" />
        </mxCell>
        <mxCell id="VpKNRj3l13NfQC-vOljt-10" value="queue" style="shape=cylinder3;whiteSpace=wrap;html=1;boundedLbl=1;backgroundOutline=1;size=15;direction=south;" vertex="1" parent="1">
          <mxGeometry x="340" y="370" width="80" height="60" as="geometry" />
        </mxCell>
        <mxCell id="VpKNRj3l13NfQC-vOljt-12" value="customer ID&lt;br&gt;amount&lt;br&gt;currency" style="text;html=1;align=center;verticalAlign=middle;resizable=0;points=[];autosize=1;strokeColor=none;fillColor=none;" vertex="1" parent="1">
          <mxGeometry x="305" y="303" width="90" height="60" as="geometry" />
        </mxCell>
        <mxCell id="VpKNRj3l13NfQC-vOljt-17" style="edgeStyle=orthogonalEdgeStyle;rounded=0;orthogonalLoop=1;jettySize=auto;html=1;entryX=0;entryY=0.5;entryDx=0;entryDy=0;" edge="1" parent="1" source="VpKNRj3l13NfQC-vOljt-13" target="VpKNRj3l13NfQC-vOljt-15">
          <mxGeometry relative="1" as="geometry" />
        </mxCell>
        <mxCell id="VpKNRj3l13NfQC-vOljt-13" value="Payment Eecution Service" style="rounded=0;whiteSpace=wrap;html=1;" vertex="1" parent="1">
          <mxGeometry x="320" y="500" width="120" height="60" as="geometry" />
        </mxCell>
        <mxCell id="VpKNRj3l13NfQC-vOljt-46" value="" style="edgeStyle=orthogonalEdgeStyle;rounded=0;orthogonalLoop=1;jettySize=auto;html=1;" edge="1" parent="1" source="VpKNRj3l13NfQC-vOljt-15" target="VpKNRj3l13NfQC-vOljt-45">
          <mxGeometry relative="1" as="geometry" />
        </mxCell>
        <mxCell id="VpKNRj3l13NfQC-vOljt-15" value="Currency Exchage Service" style="rounded=0;whiteSpace=wrap;html=1;" vertex="1" parent="1">
          <mxGeometry x="560" y="500" width="120" height="60" as="geometry" />
        </mxCell>
        <mxCell id="VpKNRj3l13NfQC-vOljt-19" value="Payment Execution API" style="rounded=0;whiteSpace=wrap;html=1;" vertex="1" parent="1">
          <mxGeometry x="320" y="680" width="120" height="60" as="geometry" />
        </mxCell>
        <mxCell id="VpKNRj3l13NfQC-vOljt-25" style="edgeStyle=orthogonalEdgeStyle;rounded=0;orthogonalLoop=1;jettySize=auto;html=1;entryX=0.5;entryY=0;entryDx=0;entryDy=0;" edge="1" parent="1" source="VpKNRj3l13NfQC-vOljt-23" target="VpKNRj3l13NfQC-vOljt-19">
          <mxGeometry relative="1" as="geometry" />
        </mxCell>
        <mxCell id="VpKNRj3l13NfQC-vOljt-30" style="edgeStyle=orthogonalEdgeStyle;rounded=0;orthogonalLoop=1;jettySize=auto;html=1;entryX=0;entryY=0.5;entryDx=0;entryDy=0;" edge="1" parent="1" source="VpKNRj3l13NfQC-vOljt-23" target="VpKNRj3l13NfQC-vOljt-28">
          <mxGeometry relative="1" as="geometry" />
        </mxCell>
        <mxCell id="VpKNRj3l13NfQC-vOljt-37" value="" style="edgeStyle=orthogonalEdgeStyle;rounded=0;orthogonalLoop=1;jettySize=auto;html=1;" edge="1" parent="1" source="VpKNRj3l13NfQC-vOljt-23" target="VpKNRj3l13NfQC-vOljt-36">
          <mxGeometry relative="1" as="geometry" />
        </mxCell>
        <mxCell id="VpKNRj3l13NfQC-vOljt-51" style="edgeStyle=orthogonalEdgeStyle;rounded=0;orthogonalLoop=1;jettySize=auto;html=1;exitX=0.25;exitY=1;exitDx=0;exitDy=0;entryX=1;entryY=0.5;entryDx=0;entryDy=0;" edge="1" parent="1" source="VpKNRj3l13NfQC-vOljt-23" target="VpKNRj3l13NfQC-vOljt-49">
          <mxGeometry relative="1" as="geometry" />
        </mxCell>
        <mxCell id="VpKNRj3l13NfQC-vOljt-23" value="Payment Execution Service" style="rounded=0;whiteSpace=wrap;html=1;" vertex="1" parent="1">
          <mxGeometry x="320" y="500" width="120" height="60" as="geometry" />
        </mxCell>
        <mxCell id="VpKNRj3l13NfQC-vOljt-26" value="Payment ID&lt;br&gt;STATUS" style="text;html=1;align=center;verticalAlign=middle;resizable=0;points=[];autosize=1;strokeColor=none;fillColor=none;" vertex="1" parent="1">
          <mxGeometry x="365" y="603" width="90" height="40" as="geometry" />
        </mxCell>
        <mxCell id="VpKNRj3l13NfQC-vOljt-27" value="databse" style="shape=cylinder3;whiteSpace=wrap;html=1;boundedLbl=1;backgroundOutline=1;size=15;" vertex="1" parent="1">
          <mxGeometry x="590" y="740" width="60" height="80" as="geometry" />
        </mxCell>
        <mxCell id="VpKNRj3l13NfQC-vOljt-31" value="" style="edgeStyle=orthogonalEdgeStyle;rounded=0;orthogonalLoop=1;jettySize=auto;html=1;" edge="1" parent="1" source="VpKNRj3l13NfQC-vOljt-28" target="VpKNRj3l13NfQC-vOljt-27">
          <mxGeometry relative="1" as="geometry" />
        </mxCell>
        <mxCell id="VpKNRj3l13NfQC-vOljt-28" value="Payment Audit Service" style="rounded=0;whiteSpace=wrap;html=1;" vertex="1" parent="1">
          <mxGeometry x="560" y="620" width="120" height="60" as="geometry" />
        </mxCell>
        <mxCell id="VpKNRj3l13NfQC-vOljt-34" style="edgeStyle=orthogonalEdgeStyle;rounded=0;orthogonalLoop=1;jettySize=auto;html=1;" edge="1" parent="1" source="VpKNRj3l13NfQC-vOljt-32" target="wQz08NDPql334Otkg_Ah-1">
          <mxGeometry relative="1" as="geometry" />
        </mxCell>
        <mxCell id="VpKNRj3l13NfQC-vOljt-32" value="Notification Service" style="rounded=0;whiteSpace=wrap;html=1;" vertex="1" parent="1">
          <mxGeometry x="-5" y="500" width="120" height="60" as="geometry" />
        </mxCell>
        <mxCell id="VpKNRj3l13NfQC-vOljt-38" value="" style="edgeStyle=orthogonalEdgeStyle;rounded=0;orthogonalLoop=1;jettySize=auto;html=1;" edge="1" parent="1" source="VpKNRj3l13NfQC-vOljt-36" target="VpKNRj3l13NfQC-vOljt-32">
          <mxGeometry relative="1" as="geometry" />
        </mxCell>
        <mxCell id="VpKNRj3l13NfQC-vOljt-36" value="queue" style="shape=cylinder3;whiteSpace=wrap;html=1;boundedLbl=1;backgroundOutline=1;size=15;direction=south;" vertex="1" parent="1">
          <mxGeometry x="170" y="500" width="80" height="60" as="geometry" />
        </mxCell>
        <mxCell id="VpKNRj3l13NfQC-vOljt-39" value="payment_audit" style="swimlane;fontStyle=0;childLayout=stackLayout;horizontal=1;startSize=30;horizontalStack=0;resizeParent=1;resizeParentMax=0;resizeLast=0;collapsible=1;marginBottom=0;whiteSpace=wrap;html=1;" vertex="1" parent="1">
          <mxGeometry x="680" y="700" width="140" height="120" as="geometry" />
        </mxCell>
        <mxCell id="VpKNRj3l13NfQC-vOljt-40" value="Paymend ID" style="text;strokeColor=none;fillColor=none;align=left;verticalAlign=middle;spacingLeft=4;spacingRight=4;overflow=hidden;points=[[0,0.5],[1,0.5]];portConstraint=eastwest;rotatable=0;whiteSpace=wrap;html=1;" vertex="1" parent="VpKNRj3l13NfQC-vOljt-39">
          <mxGeometry y="30" width="140" height="30" as="geometry" />
        </mxCell>
        <mxCell id="VpKNRj3l13NfQC-vOljt-41" value="Amount" style="text;strokeColor=none;fillColor=none;align=left;verticalAlign=middle;spacingLeft=4;spacingRight=4;overflow=hidden;points=[[0,0.5],[1,0.5]];portConstraint=eastwest;rotatable=0;whiteSpace=wrap;html=1;" vertex="1" parent="VpKNRj3l13NfQC-vOljt-39">
          <mxGeometry y="60" width="140" height="30" as="geometry" />
        </mxCell>
        <mxCell id="VpKNRj3l13NfQC-vOljt-42" value="Status" style="text;strokeColor=none;fillColor=none;align=left;verticalAlign=middle;spacingLeft=4;spacingRight=4;overflow=hidden;points=[[0,0.5],[1,0.5]];portConstraint=eastwest;rotatable=0;whiteSpace=wrap;html=1;" vertex="1" parent="VpKNRj3l13NfQC-vOljt-39">
          <mxGeometry y="90" width="140" height="30" as="geometry" />
        </mxCell>
        <mxCell id="VpKNRj3l13NfQC-vOljt-43" value="Creation date" style="text;html=1;align=center;verticalAlign=middle;resizable=0;points=[];autosize=1;strokeColor=none;fillColor=none;" vertex="1" parent="1">
          <mxGeometry x="680" y="820" width="100" height="30" as="geometry" />
        </mxCell>
        <mxCell id="VpKNRj3l13NfQC-vOljt-44" value="Processed date" style="text;html=1;align=center;verticalAlign=middle;resizable=0;points=[];autosize=1;strokeColor=none;fillColor=none;" vertex="1" parent="1">
          <mxGeometry x="680" y="850" width="110" height="30" as="geometry" />
        </mxCell>
        <mxCell id="VpKNRj3l13NfQC-vOljt-45" value="Currency Exchage Rate API" style="rounded=0;whiteSpace=wrap;html=1;" vertex="1" parent="1">
          <mxGeometry x="770" y="500" width="120" height="60" as="geometry" />
        </mxCell>
        <mxCell id="VpKNRj3l13NfQC-vOljt-47" value="cashing" style="text;html=1;align=center;verticalAlign=middle;resizable=0;points=[];autosize=1;strokeColor=none;fillColor=none;" vertex="1" parent="1">
          <mxGeometry x="690" y="508" width="60" height="30" as="geometry" />
        </mxCell>
        <mxCell id="VpKNRj3l13NfQC-vOljt-48" value="error database" style="shape=cylinder3;whiteSpace=wrap;html=1;boundedLbl=1;backgroundOutline=1;size=15;" vertex="1" parent="1">
          <mxGeometry x="200" y="740" width="60" height="80" as="geometry" />
        </mxCell>
        <mxCell id="VpKNRj3l13NfQC-vOljt-52" value="" style="edgeStyle=orthogonalEdgeStyle;rounded=0;orthogonalLoop=1;jettySize=auto;html=1;" edge="1" parent="1" source="VpKNRj3l13NfQC-vOljt-49" target="VpKNRj3l13NfQC-vOljt-48">
          <mxGeometry relative="1" as="geometry" />
        </mxCell>
        <mxCell id="VpKNRj3l13NfQC-vOljt-49" value="Error Service" style="rounded=0;whiteSpace=wrap;html=1;" vertex="1" parent="1">
          <mxGeometry x="170" y="603" width="120" height="60" as="geometry" />
        </mxCell>
        <mxCell id="VpKNRj3l13NfQC-vOljt-58" value="" style="edgeStyle=orthogonalEdgeStyle;rounded=0;orthogonalLoop=1;jettySize=auto;html=1;" edge="1" parent="1" source="VpKNRj3l13NfQC-vOljt-53" target="VpKNRj3l13NfQC-vOljt-49">
          <mxGeometry relative="1" as="geometry" />
        </mxCell>
        <mxCell id="VpKNRj3l13NfQC-vOljt-53" value="cron" style="shape=hexagon;perimeter=hexagonPerimeter2;whiteSpace=wrap;html=1;fixedSize=1;" vertex="1" parent="1">
          <mxGeometry x="50" y="608" width="80" height="50" as="geometry" />
        </mxCell>
        <mxCell id="VpKNRj3l13NfQC-vOljt-54" value="Vertical Container" style="swimlane;whiteSpace=wrap;html=1;" vertex="1" parent="1">
          <mxGeometry x="30" y="740" width="110" height="130" as="geometry" />
        </mxCell>
        <mxCell id="VpKNRj3l13NfQC-vOljt-56" value="status" style="text;html=1;align=center;verticalAlign=middle;resizable=0;points=[];autosize=1;strokeColor=none;fillColor=none;" vertex="1" parent="VpKNRj3l13NfQC-vOljt-54">
          <mxGeometry x="10" y="50" width="60" height="30" as="geometry" />
        </mxCell>
        <mxCell id="VpKNRj3l13NfQC-vOljt-59" value="destination queue" style="text;html=1;align=center;verticalAlign=middle;whiteSpace=wrap;rounded=0;" vertex="1" parent="VpKNRj3l13NfQC-vOljt-54">
          <mxGeometry x="10" y="80" width="60" height="30" as="geometry" />
        </mxCell>
        <mxCell id="VpKNRj3l13NfQC-vOljt-55" value="payload" style="text;html=1;align=center;verticalAlign=middle;resizable=0;points=[];autosize=1;strokeColor=none;fillColor=none;" vertex="1" parent="1">
          <mxGeometry x="35" y="768" width="70" height="30" as="geometry" />
        </mxCell>
      </root>
    </mxGraphModel>
  </diagram>
  <diagram id="gUJiJof11NuWS99EEXtm" name="Page-3">
    <mxGraphModel dx="1434" dy="746" grid="1" gridSize="10" guides="1" tooltips="1" connect="1" arrows="1" fold="1" page="1" pageScale="1" pageWidth="827" pageHeight="1169" math="0" shadow="0">
      <root>
        <mxCell id="0" />
        <mxCell id="1" parent="0" />
      </root>
    </mxGraphModel>
  </diagram>
</mxfile>
